<?xml version="1.0" encoding="UTF-8"?>
<svg id="Layer_1" data-name="Layer 1" xmlns="http://www.w3.org/2000/svg" viewBox="0 0 709.38 459.47">
  <defs>
    <style>
      .cls-1 {
        stroke: #000;
        stroke-width: .72px;
      }

      .cls-1, .cls-2 {
        fill: none;
        stroke-linecap: round;
        stroke-linejoin: round;
      }

      .cls-2 {
        stroke: #fff;
        stroke-width: .29px;
      }

      .cls-3 {
        fill: #fff;
      }

      .cls-3, .cls-4 {
        fill-rule: evenodd;
      }
    </style>
  </defs>
  <polyline class="cls-3" points="113.24 219.4 598.14 219.4 598.14 332.39 113.24 332.39 113.24 219.4"/>
  <path d="m149.28,275.95c0,2.4,1.3,3.59,3.89,3.59,1.73,0,3.18-.7,4.34-2.1,1.16-1.4,1.75-3.16,1.75-5.29,0-4.13-1.76-7.6-5.29-10.43-3.53-2.83-7.89-4.24-13.08-4.24-7.06,0-12.78,2.43-17.17,7.29-4.39,4.86-6.59,11.18-6.59,18.97s2.16,13.6,6.49,18.22c4.33,4.63,10.05,6.94,17.17,6.94,6.06,0,10.82-1.73,14.28-5.19,3.46-3.46,5.19-7.19,5.19-11.18,0-1.26-.47-1.9-1.4-1.9-.87,0-1.33.83-1.4,2.5-.13,2.6-1.27,5.26-3.39,7.99-3.06,3.86-7.59,5.79-13.58,5.79-6.32,0-11.33-2.08-15.03-6.24-3.69-4.16-5.54-9.8-5.54-16.92s1.93-13.28,5.79-17.67c3.86-4.39,9.02-6.59,15.48-6.59,4.33,0,8,1.18,11.03,3.54,3.03,2.36,4.54,5.24,4.54,8.64,0,1.86-.47,2.8-1.4,2.8-.2,0-.47-.1-.8-.3l-.6-.7c-.27-.33-.83-.5-1.7-.5-2,0-3,1-3,3h0Zm25.36-11.48c-4.33,4.66-6.49,10.68-6.49,18.07s2.16,14.04,6.49,18.97c4.33,4.93,9.88,7.39,16.67,7.39s12.66-2.36,17.02-7.09c4.36-4.73,6.54-10.85,6.54-18.37s-2.18-13.98-6.54-18.77c-4.36-4.79-10.03-7.19-17.02-7.19s-12.35,2.33-16.67,6.99h0Zm1.9,35.79c-3.73-4.43-5.59-10.27-5.59-17.52s1.88-12.53,5.64-16.82c3.76-4.29,8.7-6.44,14.83-6.44s11.1,2.25,14.93,6.74c3.83,4.49,5.74,10.33,5.74,17.52s-1.93,12.43-5.79,16.72c-3.86,4.29-8.85,6.44-14.98,6.44s-11.05-2.21-14.78-6.64h0Zm60.2-39.49c0-1.53-.53-2.3-1.6-2.3-.4,0-1,.05-1.8.15-.8.1-1.4.15-1.8.15h-4.79l-3-.3h-.3c-1.13,0-1.7.43-1.7,1.3s.66,1.3,2,1.3h.3l2.7-.2c1.8-.13,2.9-.2,3.29-.2,1.2,0,2.06.17,2.6.5.86.53,1.36,2.53,1.5,5.99,0-.66,0,1.43,0,6.29v15.67c0,7.79-.27,12.48-.8,14.08-.53,1.6-2.06,2.4-4.59,2.4h-4.79c-1.46,0-2.2.4-2.2,1.19,0,.73.63,1.1,1.9,1.1h.3l3.49-.3,4.19-.3h7.59l4.09.3,3.49.3c-.07,0,.07,0,.4,0,1.2,0,1.8-.4,1.8-1.19,0-.73-.73-1.1-2.2-1.1h-4.69c-2.53,0-4.06-.8-4.59-2.4-.53-1.6-.8-6.29-.8-14.08v-28.35h0Zm-4.84-16.12c-.7.7-1.05,1.58-1.05,2.65,0,1,.35,1.85,1.05,2.55s1.58,1.05,2.65,1.05c.93,0,1.75-.35,2.45-1.05.7-.7,1.05-1.55,1.05-2.55s-.35-1.86-1.05-2.6c-.7-.73-1.55-1.1-2.55-1.1s-1.85.35-2.55,1.05h0Zm35.44,14.53c-.23-.46-.82-.7-1.75-.7-.4,0-1.03.05-1.9.15-.87.1-1.5.15-1.9.15h-1.9c-.73,0-1.5-.03-2.3-.1-1.6-.13-2.63-.2-3.1-.2-1.2,0-1.8.43-1.8,1.3s.66,1.3,2,1.3l3-.2c1.8-.13,2.9-.2,3.29-.2,1.2,0,2.06.17,2.6.5.86.53,1.36,2.53,1.5,5.99,0-.6,0,1.5,0,6.29v15.67c0,7.79-.27,12.48-.8,14.08-.53,1.6-2.1,2.4-4.69,2.4h-4.69c-1.46,0-2.2.4-2.2,1.19,0,.73.63,1.1,1.9,1.1h.3l3.49-.3,4.19-.3h7.59l4.09.3,3.49.3c-.07,0,.07,0,.4,0,1.2,0,1.8-.4,1.8-1.19,0-.73-.73-1.1-2.2-1.1h-4.69c-2.53,0-4.06-.8-4.59-2.4-.53-1.6-.8-6.29-.8-14.08v-8.69c0-5.46.63-9.42,1.9-11.88,3.06-6.06,8.42-9.09,16.07-9.09,6.26,0,10.72,1.86,13.38,5.59,1.86,2.6,2.8,8.12,2.8,16.57v7.49c0,7.85-.25,12.56-.75,14.13-.5,1.56-2.05,2.35-4.64,2.35h-4.69c-1.46,0-2.2.4-2.2,1.19,0,.73.6,1.1,1.8,1.1h.4l3.49-.3,4.09-.3h7.59l4.19.3,3.49.3h.3c1.26,0,1.9-.4,1.9-1.19,0-.73-.73-1.1-2.2-1.1h-4.79c-2.53,0-4.06-.8-4.59-2.4-.53-1.6-.8-6.29-.8-14.08v-7.39c0-5.59-.27-9.68-.8-12.28-.8-3.79-2.73-6.74-5.79-8.84-3.06-2.1-6.99-3.14-11.78-3.14-3.26,0-6.42.63-9.48,1.9-3.59,1.53-6.56,4.39-8.89,8.59v-5.39c0-1.8-.12-2.93-.35-3.39h0Z"/>
  <path d="m329.42,261.57v-1c0-1.4-.67-2.1-2-2.1-.53,0-1.32.03-2.35.1-1.03.07-1.81.1-2.35.1h-3.49l-2.9-.2h-.3c-1.13,0-1.7.43-1.7,1.3s.67,1.3,2.01,1.3l3.02-.2c1.81-.2,2.92-.3,3.32-.3,1.21,0,2.08.17,2.62.5.87.53,1.38,2.53,1.51,6,0-.67,0,1.43,0,6.3v34.6c0,7.8-.27,12.5-.8,14.1-.54,1.6-2.08,2.4-4.63,2.4-.47,0-1.19-.03-2.16-.1-.97-.07-1.69-.1-2.16-.1-.2-.07-.37-.1-.5-.1-1.48,0-2.21.43-2.21,1.3,0,.8.63,1.2,1.9,1.2h.3l3.51-.5h15.93l3.51.5h.3c1.27,0,1.9-.4,1.9-1.2,0-.87-.7-1.3-2.1-1.3-.27,0-.47.03-.6.1-.47,0-1.17.03-2.1.1-.93.07-1.63.1-2.1.1-2.53,0-4.06-.82-4.59-2.45-.53-1.63-.8-6.37-.8-14.23v-8.39c3.39,6.32,8.95,9.48,16.67,9.48,6.65,0,12.03-2.45,16.12-7.34s6.14-11.3,6.14-19.22-1.9-13.71-5.69-18.17c-3.79-4.46-8.92-6.69-15.38-6.69-8.32,0-14.28,3.76-17.87,11.28v-7.19h0Zm3.87,39.44c-1.92-2.2-3.11-5.09-3.57-8.69-.2-1.53-.3-4.76-.3-9.68,0-4.59.33-8.1.99-10.53.66-2.43,1.95-4.74,3.87-6.94,3.24-3.79,7.61-5.69,13.11-5.69,5.83,0,10.31,2.05,13.45,6.14s4.72,9.9,4.72,17.42-1.72,13.05-5.16,17.37c-3.44,4.33-8.07,6.49-13.9,6.49-5.43,0-9.83-1.96-13.21-5.89h0Zm80.99-37.19c-4.06-4.23-9.05-6.34-14.98-6.34-6.79,0-12.33,2.45-16.62,7.34-4.29,4.89-6.44,11.23-6.44,19.02s2.06,13.58,6.19,18.17c4.13,4.59,9.58,6.89,16.37,6.89,4.66,0,8.74-1.12,12.23-3.34s6.04-5.34,7.64-9.34c.73-1.86,1.1-3.36,1.1-4.49,0-.93-.4-1.4-1.2-1.4-.73,0-1.23.57-1.5,1.7-.33,1.46-.5,2.3-.5,2.5-.6,2.06-1.6,3.96-3,5.69-3.59,4.46-8.55,6.69-14.88,6.69-5.86,0-10.6-2.05-14.23-6.14-3.63-4.09-5.44-9.47-5.44-16.12,0-1.06.12-1.73.35-2,.23-.27.81-.4,1.75-.4h35.34c1.33,0,2.31-.13,2.95-.4.63-.27.95-1.1.95-2.5,0-6.12-2.03-11.3-6.09-15.53h0Zm-34.05,10.33c1.4-4.66,3.74-8.27,7.04-10.83,3.29-2.56,7.24-3.84,11.83-3.84,6.06,0,10.78,2.23,14.18,6.69,2.93,3.86,4.39,7.92,4.39,12.18,0,1.07-.57,1.6-1.7,1.6h-34.34c-1.46,0-2.2-.5-2.2-1.5,0-1.13.27-2.56.8-4.29h0Zm62.7-13.5c0-1.45-.7-2.17-2.1-2.17h-.5c-.2.05-.37.07-.5.07-1.4.15-2.46.22-3.19.22h-1.5c-.8,0-1.56-.03-2.3-.1-1.53-.13-2.6-.2-3.19-.2-1.13,0-1.7.43-1.7,1.3s.66,1.3,2,1.3l3-.2c1.8-.13,2.9-.2,3.29-.2,1.2,0,2.06.17,2.6.5.86.53,1.36,2.53,1.5,5.99,0-.6,0,1.5,0,6.29v15.67c0,7.79-.27,12.48-.8,14.08-.53,1.6-2.1,2.4-4.69,2.4h-4.69c-1.46,0-2.2.4-2.2,1.19,0,.73.63,1.1,1.9,1.1h.3l3.49-.3,4.09-.3h7.69l4.09.3,3.49.3h.3c1.26,0,1.9-.4,1.9-1.19,0-.73-.73-1.1-2.2-1.1h-4.69c-2.53,0-4.06-.8-4.59-2.4-.53-1.6-.8-6.29-.8-14.08v-8.49c0-6.65.96-11.58,2.9-14.78,2.6-4.26,6.75-6.39,12.48-6.39,3.33,0,6.02.88,8.09,2.65,2.06,1.76,3.1,4.04,3.1,6.84,0,2.4-.43,3.59-1.3,3.59-.2,0-.57-.2-1.1-.6-.53-.4-1.07-.6-1.6-.6-2,0-3,1-3,3,0,2.2,1.2,3.29,3.59,3.29,1.8,0,3.28-.78,4.44-2.35,1.16-1.56,1.75-3.51,1.75-5.84,0-3.53-1.28-6.41-3.84-8.64-2.56-2.23-5.84-3.34-9.83-3.34-6.79,0-12.02,3.19-15.67,9.58v-6.41h0Zm74.52,46.2c.29.56.8.85,1.53.85h11.03c1.12,0,1.67-.43,1.67-1.3s-.67-1.3-2-1.3c-.27,0-1.27.13-3,.4-1.73.27-2.83.4-3.29.4-1.73,0-2.83-.45-3.29-1.35-.47-.9-.7-4.73-.7-11.48v-51.15c0-1.07-.15-1.74-.45-2.01-.3-.27-.82-.4-1.56-.4h-11.16c-1.14,0-1.71.4-1.71,1.2s.64,1.2,1.93,1.2c.47,0,1.49-.07,3.04-.2,1.56-.13,2.71-.2,3.45-.2,1.76,0,2.87.47,3.35,1.4.47.93.71,4.73.71,11.38v13.08c-3.08-6.59-8.43-9.88-16.06-9.88-6.56,0-11.99,2.5-16.31,7.49-4.32,4.99-6.47,11.28-6.47,18.87s2.02,13.41,6.07,18.07c4.05,4.66,9.28,6.99,15.71,6.99,7.36,0,13.04-3.36,17.06-10.08v3.99c0,2.13.15,3.48.44,4.04h0Zm-1.49-11.83c-.7,2.4-1.98,4.63-3.84,6.69-3.19,3.46-7.19,5.19-11.98,5.19-5.66,0-10.27-2.15-13.83-6.44-3.56-4.29-5.34-9.8-5.34-16.52,0-7.05,1.86-12.89,5.59-17.52,3.73-4.63,8.42-6.94,14.08-6.94,6.39,0,10.95,2.46,13.68,7.39,1.8,3.26,2.7,8.75,2.7,16.47v1.3c0,4.53-.35,7.99-1.05,10.38h0Z"/>
  <path d="m580.56,303.56c0,1.68.17,2.81.5,3.38.33.57,1,.86,2,.86h2.9c.46-.2.8-.3,1-.3h1.2l2.3.1,2.9.2h.2c1.2,0,1.8-.43,1.8-1.3s-.63-1.3-1.9-1.3c-.73,0-1.76.13-3.1.4-1.93.07-3,.1-3.19.1-1.73,0-2.83-.45-3.29-1.35-.47-.9-.7-4.71-.7-11.43v-30.45c0-2.66-.63-3.99-1.9-3.99-.47,0-.9.05-1.3.15-.4.1-1.1.15-2.1.15h-4.99l-2.7-.3h-.3c-1.07,0-1.6.43-1.6,1.3s.64,1.3,1.93,1.3l2.94-.3c1.22-.13,2.33-.2,3.35-.2,1.69,0,2.79.45,3.3,1.35.51.9.76,4.71.76,11.43v11.28c0,6.72-1.03,11.78-3.1,15.18-2.86,4.73-7.69,7.09-14.48,7.09-5.13,0-9.05-1.43-11.78-4.29-1.73-1.8-2.83-4.03-3.29-6.69-.33-1.6-.5-4.16-.5-7.69v-26.06c0-2.46-.6-3.69-1.8-3.69l-1.6.2-1,.1h-5.79l-2.8-.3h-.3c-1,0-1.5.4-1.5,1.2,0,.93.64,1.4,1.91,1.4.2,0,1.17-.1,2.92-.3,1.21-.13,2.28-.2,3.22-.2,1.95,0,3.12.63,3.52,1.9.4,1.27.6,4.89.6,10.88v14.58c0,3.79.13,6.52.4,8.19.53,2.86,1.63,5.29,3.29,7.29,3.06,3.66,7.85,5.49,14.38,5.49,5.46,0,9.98-1.63,13.58-4.89,1.53-1.4,2.9-3.26,4.09-5.59v5.15h0Z"/>
  <line class="cls-1" x1=".36" y1="374.93" x2="709.02" y2="374.93"/>
  <polyline class="cls-3" points="258.79 414.27 454.75 414.27 454.75 459.47 258.79 459.47 258.79 414.27"/>
  <path d="m274.31,448.38c1.39-1.13,2.09-2.58,2.09-4.36,0-1.89-.82-3.19-2.47-3.9-1.14-.5-2.9-.88-5.26-1.12-2.23-.24-3.76-.64-4.6-1.22-.84-.57-1.25-1.51-1.25-2.81s.54-2.46,1.62-3.33c1.08-.86,2.45-1.29,4.1-1.29,1.79,0,3.23.52,4.34,1.55,1.11,1.04,1.66,2.38,1.66,4.02,0-.13-.02-.04-.05.28l-.11.92v.08c0,.43.16.64.48.64.34,0,.52-.23.52-.68v-.36c-.03-.21-.05-.43-.08-.66-.03-.23-.04-.88-.04-1.97l.04-1.47c0-.24.01-.5.04-.8.03-.29.04-.46.04-.52.08-.53.12-.86.12-1,0-.42-.16-.64-.48-.64s-.48.39-.48,1.16v1.91c-1.41-2.18-3.43-3.27-6.06-3.27-1.94,0-3.55.54-4.84,1.63-1.29,1.09-1.93,2.43-1.93,4.02,0,.85.23,1.64.68,2.37.45.73,1.05,1.25,1.79,1.57.88.37,2.6.7,5.18,1,2.2.27,3.74.7,4.62,1.31.88.61,1.31,1.58,1.31,2.91,0,1.46-.58,2.64-1.75,3.55-1.17.9-2.71,1.35-4.62,1.35-2.05,0-3.71-.53-4.98-1.58-1.27-1.05-1.91-2.42-1.91-4.11,0-.37.02-.74.05-1.11,0-.26.02-.51.05-.73.04-.22.05-.35.05-.38,0-.66-.19-.99-.58-.99-.36,0-.54.23-.54.68,0,.03.04.39.12,1.08.08.69.12,1.66.12,2.91,0,1.14-.04,2.05-.12,2.73-.08.68-.12,1.18-.12,1.49,0,.53.2.8.6.8.34,0,.52-.3.52-.9,0,.14-.02-.34-.06-1.43-.02-.19-.05-.53-.1-1.02,1.48,2.23,3.79,3.35,6.91,3.35,2.2,0,3.99-.56,5.38-1.69h0Zm5.39-25.92h-.12c-.45,0-.68.16-.68.48s.27.48.8.48c.08,0,.48-.02,1.2-.07.48-.03.92-.05,1.31-.05.77,0,1.24.24,1.39.72.16.48.24,1.92.24,4.33v13.86c0,3.1-.11,4.97-.32,5.6-.21.64-.84.95-1.87.95h-1.87c-.58,0-.88.16-.88.48,0,.29.24.44.72.44h.16l1.39-.12,1.63-.12h3.11l1.63.12,1.39.12h.12c.48,0,.72-.16.72-.48,0-.29-.28-.44-.84-.44h-1.87c-1.04,0-1.66-.32-1.87-.97-.21-.65-.32-2.51-.32-5.58v-18.55c0-.45-.03-.73-.08-.83-.11-.24-.35-.36-.72-.36h-4.38Z"/>
  <path d="m294.25,432.34c-1.73,1.86-2.59,4.26-2.59,7.21s.86,5.6,2.59,7.57c1.73,1.97,3.94,2.95,6.65,2.95s5.05-.94,6.79-2.83c1.74-1.89,2.61-4.33,2.61-7.33s-.87-5.58-2.61-7.49c-1.74-1.91-4-2.87-6.79-2.87s-4.93.93-6.65,2.79h0Zm.76,14.28c-1.49-1.77-2.23-4.1-2.23-6.99s.75-5,2.25-6.71c1.5-1.71,3.47-2.57,5.92-2.57s4.43.9,5.96,2.69c1.53,1.79,2.29,4.12,2.29,6.99s-.77,4.96-2.31,6.67c-1.54,1.71-3.53,2.57-5.98,2.57s-4.41-.88-5.9-2.65h0Zm37.53,3.29c.48,0,.85-.5,1.12-1.51l4.06-14.91c.34-1.25.6-1.99.78-2.25.17-.25.52-.38,1.06-.38.19,0,.45.02.8.06.34.04.61.06.8.06.53,0,.8-.19.8-.56,0-.32-.28-.48-.84-.48l-1.08.04-1.47.15c-.32.03-.82.05-1.51.05-1.17,0-2.17-.05-2.99-.14-.56-.06-.96-.1-1.2-.1-.56,0-.84.19-.84.56,0,.32.23.48.68.48.24,0,.61-.02,1.12-.06.5-.04.89-.06,1.16-.06,1.3,0,1.95.34,1.95,1.03,0,.37-.12,1.01-.36,1.91l-3.71,13.95-.16.48c-.05.21-.12.32-.2.32s-.19-.2-.32-.6l-5.1-16.82c-.19-.63-.48-.95-.88-.95-.45,0-.78.37-1,1.11l-4.62,16.26-.08.36c-.08.26-.17.4-.28.4s-.24-.29-.4-.88l-4.02-14.53c-.16-.59-.24-.99-.24-1.2,0-.56.38-.84,1.16-.84.08,0,.4.02.96.06.56.04,1.02.06,1.39.06h.12c.74,0,1.12-.19,1.12-.58,0-.31-.27-.46-.8-.46-.19,0-.66.03-1.43.1-1.17.1-2.09.14-2.75.14-.43,0-.88-.02-1.35-.07l-1.43-.13c-.9-.03-1.31-.04-1.24-.04-.58,0-.88.16-.88.48,0,.37.29.56.88.56.29,0,.53-.04.72-.12h.64c.66,0,1.14.19,1.43.56.16.21.36.73.6,1.56l4.34,15.48c.27.96.66,1.44,1.2,1.44.5,0,.89-.46,1.16-1.39l4.5-16.02.12-.36c.08-.21.16-.32.24-.32.08.03.15.13.2.32l4.94,16.46c.27.87.65,1.31,1.16,1.31h0Z"/>
  <path d="m369.14,449.25c.12.23.32.34.61.34h4.4c.45,0,.67-.17.67-.52s-.27-.52-.8-.52c-.11,0-.5.05-1.2.16-.69.11-1.13.16-1.31.16-.69,0-1.13-.18-1.31-.54-.19-.36-.28-1.89-.28-4.58v-20.41c0-.43-.06-.69-.18-.8-.12-.11-.33-.16-.62-.16h-4.45c-.45,0-.68.16-.68.48s.26.48.77.48c.19,0,.59-.03,1.21-.08.62-.05,1.08-.08,1.38-.08.7,0,1.15.19,1.34.56.19.37.28,1.89.28,4.54v5.22c-1.23-2.63-3.36-3.94-6.41-3.94-2.62,0-4.79,1-6.51,2.99-1.72,1.99-2.58,4.5-2.58,7.53s.81,5.35,2.42,7.21c1.61,1.86,3.7,2.79,6.27,2.79,2.94,0,5.21-1.34,6.81-4.02v1.59c0,.85.06,1.39.18,1.61h0Zm-.6-4.72c-.28.96-.79,1.85-1.53,2.67-1.27,1.38-2.87,2.07-4.78,2.07-2.26,0-4.1-.86-5.52-2.57-1.42-1.71-2.13-3.91-2.13-6.59,0-2.81.74-5.15,2.23-6.99,1.49-1.85,3.36-2.77,5.62-2.77,2.55,0,4.37.98,5.46,2.95.72,1.3,1.08,3.49,1.08,6.57v.52c0,1.81-.14,3.19-.42,4.14h0Z"/>
  <path d="m379.33,432.34c-1.73,1.86-2.59,4.26-2.59,7.21s.86,5.6,2.59,7.57c1.73,1.97,3.94,2.95,6.65,2.95s5.05-.94,6.79-2.83c1.74-1.89,2.61-4.33,2.61-7.33s-.87-5.58-2.61-7.49c-1.74-1.91-4-2.87-6.79-2.87s-4.93.93-6.65,2.79h0Zm.76,14.28c-1.49-1.77-2.23-4.1-2.23-6.99s.75-5,2.25-6.71c1.5-1.71,3.47-2.57,5.92-2.57s4.43.9,5.96,2.69c1.53,1.79,2.29,4.12,2.29,6.99s-.77,4.96-2.31,6.67c-1.54,1.71-3.53,2.57-5.98,2.57s-4.41-.88-5.9-2.65h0Zm37.53,3.29c.48,0,.85-.5,1.12-1.51l4.06-14.91c.34-1.25.6-1.99.78-2.25.17-.25.52-.38,1.06-.38.19,0,.45.02.8.06.34.04.61.06.8.06.53,0,.8-.19.8-.56,0-.32-.28-.48-.84-.48l-1.08.04-1.47.15c-.32.03-.82.05-1.51.05-1.17,0-2.17-.05-2.99-.14-.56-.06-.96-.1-1.2-.1-.56,0-.84.19-.84.56,0,.32.23.48.68.48.24,0,.61-.02,1.12-.06.5-.04.89-.06,1.16-.06,1.3,0,1.95.34,1.95,1.03,0,.37-.12,1.01-.36,1.91l-3.71,13.95-.16.48c-.05.21-.12.32-.2.32s-.19-.2-.32-.6l-5.1-16.82c-.19-.63-.48-.95-.88-.95-.45,0-.78.37-1,1.11l-4.62,16.26-.08.36c-.08.26-.17.4-.28.4s-.24-.29-.4-.88l-4.02-14.53c-.16-.59-.24-.99-.24-1.2,0-.56.38-.84,1.16-.84.08,0,.4.02.96.06.56.04,1.02.06,1.39.06h.12c.74,0,1.12-.19,1.12-.58,0-.31-.27-.46-.8-.46-.19,0-.66.03-1.43.1-1.17.1-2.09.14-2.75.14-.43,0-.88-.02-1.35-.07l-1.43-.13c-.9-.03-1.31-.04-1.24-.04-.58,0-.88.16-.88.48,0,.37.29.56.88.56.29,0,.53-.04.72-.12h.64c.66,0,1.14.19,1.43.56.16.21.36.73.6,1.56l4.34,15.48c.27.96.66,1.44,1.2,1.44.5,0,.89-.46,1.16-1.39l4.5-16.02.12-.36c.08-.21.16-.32.24-.32.08.03.15.13.2.32l4.94,16.46c.27.87.65,1.31,1.16,1.31h0Z"/>
  <path d="m433.98,430.23c-.09-.19-.33-.28-.7-.28-.16,0-.41.02-.76.06-.35.04-.6.06-.76.06h-.76c-.29,0-.6-.01-.92-.04-.64-.05-1.05-.08-1.23-.08-.48,0-.72.17-.72.52s.27.52.8.52l1.2-.08c.72-.05,1.16-.08,1.31-.08.48,0,.82.07,1.04.2.34.21.54,1.01.6,2.39,0-.24,0,.6,0,2.51v6.25c0,3.11-.11,4.98-.32,5.62-.21.64-.84.96-1.87.96h-1.87c-.58,0-.88.16-.88.48,0,.29.25.44.76.44h.12l1.39-.12,1.67-.12h3.03l1.63.12,1.39.12s.03,0,.16,0c.48,0,.72-.16.72-.48,0-.29-.29-.44-.88-.44h-1.87c-1.01,0-1.62-.32-1.83-.96-.21-.64-.32-2.51-.32-5.62v-3.47c0-2.18.25-3.76.76-4.74,1.22-2.42,3.36-3.63,6.41-3.63,2.5,0,4.28.74,5.34,2.23.74,1.04,1.12,3.24,1.12,6.61v2.99c0,3.13-.1,5.01-.3,5.64-.2.62-.82.94-1.85.94h-1.87c-.58,0-.88.16-.88.48,0,.29.24.44.72.44h.16l1.39-.12,1.63-.12h3.03l1.67.12,1.39.12h.12c.5,0,.76-.16.76-.48,0-.29-.29-.44-.88-.44h-1.91c-1.01,0-1.62-.32-1.83-.96-.21-.64-.32-2.51-.32-5.62v-2.95c0-2.23-.11-3.86-.32-4.9-.32-1.51-1.09-2.69-2.31-3.53-1.22-.84-2.79-1.25-4.7-1.25-1.3,0-2.56.25-3.78.76-1.43.61-2.62,1.75-3.55,3.43v-2.15c0-.72-.05-1.17-.14-1.35h0Z"/>
  <path class="cls-4" d="m306.92,35.92c.21,0,.29.44.22,1.3-.13,1.73-.42,3.89-.85,6.48-.43,2.59-.65,5.18-.65,7.78s-.22,5.19-.65,7.78c-.43,2.59-1.08,5.4-1.94,8.42-.86,3.02-1.94,6.27-3.24,9.72-1.3,3.46-2.81,8.42-4.54,14.91-1.73,6.48-2.27,10.8-1.62,12.96.34,1.13.64,2.2.91,3.22.59,1.99,1.08,3.57,1.45,4.72.37,1.15.7,2.03.99,2.62.29.59.57,1.14.87,1.65.86,1.5,2.38,2.87,4.54,4.12,2.16,1.25,7.99,4.23,17.5,8.95l1.16.23c1.28.25,2.57-.41,3.11-1.6.61-1.36.92-2.63.92-3.82,0-1.73-.43-4.32-1.3-7.78,3.46,5.99,5.83,10.94,7.13,14.86,1.3,3.92,2.38,6.63,3.24,8.12.86,1.5,2.59,3,5.19,4.49l5.09,2.94c.8.46.8,1.39,0,2.78-.8,1.39-1.85,2.73-3.15,4.03-1.3,1.3-4.27.6-8.92-2.08-4.65-2.69-8.97-5.54-12.96-8.57-3.99-3.02-7.86-5.62-11.6-7.78l-9.72-5.61c-2.74-1.58-5.62-2.66-8.65-3.24-3.02-.58-6.7-2.38-11.02-5.4-4.32-3.02-7.99-6.05-11.02-9.07-3.02-3.02-5.16-5.62-6.41-7.78s-2.16-4.1-2.75-5.83c-.58-1.73-1.09-3.35-1.52-4.88-.18-.76-.28-1.54-.29-2.33l-.02-1.97c-.02-2.09.16-4.19.53-6.24l.08-.47c.43-2.38,1.08-4.64,1.94-6.8.59-1.46,1.37-2.82,2.34-4.08-.84-4.42-1.62-8.24-2.34-11.47-.86-3.88-1.3-7.84-1.3-11.81v-.51c0-4.32.22-8.86.65-13.61.43-4.75,1.17-9.46,2.2-14.12l.13-.56c.18-.8.34-1.6.48-2.41l.31-1.73c.05-.28.29-.48.57-.48.28,0,.52.2.57.48l.26,1.48c.55,3.13.84,7.4.87,12.8.03,5.4.27,10.8.72,16.17l.18,2.14c.31,3.77.64,6.56.97,8.4l.37,2c.09.49.3.95.6,1.34.31.4.76.59,1.36.57.64-.02,1.32-.72,2.03-2.11.71-1.39,1.38-2.38,2.01-2.99.62-.6.94-.25.94,1.05s-1,3.67-3,7.13l-2.02,3.87c.06.22.12.45.18.67,1.73,6.48,2.83,11.07,3.3,13.75.48,2.68,1.07,5.35,1.78,7.98l.82,3.04c.7,2.59,1.33,5.12,1.91,7.61,1.71,5.64,4.73,10.18,9.05,13.64l-.69-3.97c-.4-2.29-.6-4.61-.6-6.93s.43-4.98,1.3-7.96c.86-2.98,1.3-5.76,1.3-8.35s-.43-5.19-1.3-7.78c-.86-2.59-1.51-5.62-1.94-9.07-.43-3.46-.86-7.13-1.3-11.02-.43-3.89-.86-7.13-1.3-9.72-.43-2.59-.43-5.83,0-9.72.43-3.89.86-6.91,1.3-9.07.43-2.16,1.08-4.75,1.94-7.78.86-3.02,2.04-5.83,3.54-8.43l2.99-5.18c.5-.86,1.48-2.03,2.94-3.49,1.46-1.46,3.06-2.69,4.78-3.69l3.89-2.25c.86-.5,1.19-.57.98-.2-.21.37-1.07,1.31-2.59,2.82-1.52,1.52-3.36,3.68-5.52,6.48-2.16,2.8-3.67,6.15-4.54,10.04-.86,3.89-1.73,7.56-2.59,11.02-.86,3.46-1.3,7.34-1.3,11.67s.43,9.72,1.3,16.2c.86,6.48,2.16,12.31,3.89,17.5,1.73-2.99,3.24-6.12,4.54-9.37,1.3-3.26,2.38-6.61,3.24-10.07.86-3.46,1.94-7.13,3.24-11.02.92-2.76,2.02-5.42,3.3-7.97l.15-.46c.18-.31.35-.57.49-.77.32-.61.66-1.22,1.01-1.82m-41.94,62.22l.08.13c.78.29,1.41.37,1.91.24-1.71-3.17-2.79-6.1-3.23-8.8-.38-2.3-.92-5.36-1.62-9.17-.65,1.98-.98,3.86-.98,5.66,0,6.23,1.28,10.21,3.83,11.94"/>
  <path class="cls-2" d="m306.92,35.92c.21,0,.29.44.22,1.3-.13,1.73-.42,3.89-.85,6.48-.43,2.59-.65,5.18-.65,7.78s-.22,5.19-.65,7.78c-.43,2.59-1.08,5.4-1.94,8.42-.86,3.02-1.94,6.27-3.24,9.72-1.3,3.46-2.81,8.42-4.54,14.91-1.73,6.48-2.27,10.8-1.62,12.96.34,1.13.64,2.2.91,3.22.59,1.99,1.08,3.57,1.45,4.72.37,1.15.7,2.03.99,2.62.29.59.57,1.14.87,1.65.86,1.5,2.38,2.87,4.54,4.12,2.16,1.25,7.99,4.23,17.5,8.95l1.16.23c1.28.25,2.57-.41,3.11-1.6.61-1.36.92-2.63.92-3.82,0-1.73-.43-4.32-1.3-7.78,3.46,5.99,5.83,10.94,7.13,14.86,1.3,3.92,2.38,6.63,3.24,8.12.86,1.5,2.59,3,5.19,4.49l5.09,2.94c.8.46.8,1.39,0,2.78-.8,1.39-1.85,2.73-3.15,4.03-1.3,1.3-4.27.6-8.92-2.08-4.65-2.69-8.97-5.54-12.96-8.57-3.99-3.02-7.86-5.62-11.6-7.78l-9.72-5.61c-2.74-1.58-5.62-2.66-8.65-3.24-3.02-.58-6.7-2.38-11.02-5.4-4.32-3.02-7.99-6.05-11.02-9.07-3.02-3.02-5.16-5.62-6.41-7.78s-2.16-4.1-2.75-5.83c-.58-1.73-1.09-3.35-1.52-4.88-.18-.76-.28-1.54-.29-2.33l-.02-1.97c-.02-2.09.16-4.19.53-6.24l.08-.47c.43-2.38,1.08-4.64,1.94-6.8.59-1.46,1.37-2.82,2.34-4.08-.84-4.42-1.62-8.24-2.34-11.47-.86-3.88-1.3-7.84-1.3-11.81v-.51c0-4.32.22-8.86.65-13.61.43-4.75,1.17-9.46,2.2-14.12l.13-.56c.18-.8.34-1.6.48-2.41l.31-1.73c.05-.28.29-.48.57-.48.28,0,.52.2.57.48l.26,1.48c.55,3.13.84,7.4.87,12.8.03,5.4.27,10.8.72,16.17l.18,2.14c.31,3.77.64,6.56.97,8.4l.37,2c.09.49.3.95.6,1.34.31.4.76.59,1.36.57.64-.02,1.32-.72,2.03-2.11.71-1.39,1.38-2.38,2.01-2.99.62-.6.94-.25.94,1.05s-1,3.67-3,7.13l-2.02,3.87c.06.22.12.45.18.67,1.73,6.48,2.83,11.07,3.3,13.75.48,2.68,1.07,5.35,1.78,7.98l.82,3.04c.7,2.59,1.33,5.12,1.91,7.61,1.71,5.64,4.73,10.18,9.05,13.64l-.69-3.97c-.4-2.29-.6-4.61-.6-6.93s.43-4.98,1.3-7.96c.86-2.98,1.3-5.76,1.3-8.35s-.43-5.19-1.3-7.78c-.86-2.59-1.51-5.62-1.94-9.07-.43-3.46-.86-7.13-1.3-11.02-.43-3.89-.86-7.13-1.3-9.72-.43-2.59-.43-5.83,0-9.72.43-3.89.86-6.91,1.3-9.07.43-2.16,1.08-4.75,1.94-7.78.86-3.02,2.04-5.83,3.54-8.43l2.99-5.18c.5-.86,1.48-2.03,2.94-3.49,1.46-1.46,3.06-2.69,4.78-3.69l3.89-2.25c.86-.5,1.19-.57.98-.2-.21.37-1.07,1.31-2.59,2.82-1.52,1.52-3.36,3.68-5.52,6.48-2.16,2.8-3.67,6.15-4.54,10.04-.86,3.89-1.73,7.56-2.59,11.02-.86,3.46-1.3,7.34-1.3,11.67s.43,9.72,1.3,16.2c.86,6.48,2.16,12.31,3.89,17.5,1.73-2.99,3.24-6.12,4.54-9.37,1.3-3.26,2.38-6.61,3.24-10.07.86-3.46,1.94-7.13,3.24-11.02.92-2.76,2.02-5.42,3.3-7.97l.15-.46c.18-.31.35-.57.49-.77.32-.61.66-1.22,1.01-1.82m-41.94,62.22l.08.13c.78.29,1.41.37,1.91.24-1.71-3.17-2.79-6.1-3.23-8.8-.38-2.3-.92-5.36-1.62-9.17-.65,1.98-.98,3.86-.98,5.66,0,6.23,1.28,10.21,3.83,11.94"/>
  <path class="cls-4" d="m402.47,35.92c-.21,0-.29.44-.22,1.3.13,1.73.42,3.89.85,6.48.43,2.59.65,5.18.65,7.78s.22,5.19.65,7.78c.43,2.59,1.08,5.4,1.94,8.42.87,3.02,1.95,6.27,3.24,9.72,1.3,3.46,2.81,8.42,4.54,14.91,1.73,6.48,2.27,10.8,1.62,12.96-.34,1.13-.64,2.2-.91,3.22-.6,1.99-1.08,3.57-1.45,4.72-.37,1.15-.7,2.03-.99,2.62-.29.59-.58,1.14-.87,1.65-.86,1.5-2.38,2.87-4.54,4.12-2.16,1.25-7.99,4.23-17.5,8.95l-1.15.23c-1.28.25-2.57-.41-3.11-1.6-.61-1.36-.92-2.63-.92-3.82,0-1.73.43-4.32,1.3-7.78-3.46,5.99-5.83,10.94-7.13,14.86-1.3,3.92-2.38,6.63-3.24,8.12-.86,1.5-2.59,3-5.18,4.49l-5.09,2.94c-.8.46-.8,1.39,0,2.78.8,1.39,1.85,2.73,3.15,4.03,1.3,1.3,4.27.6,8.92-2.08,4.65-2.69,8.97-5.54,12.96-8.57,3.99-3.02,7.86-5.62,11.6-7.78l9.72-5.61c2.74-1.58,5.62-2.66,8.64-3.24,3.03-.58,6.7-2.38,11.02-5.4,4.32-3.02,7.99-6.05,11.02-9.07,3.02-3.02,5.16-5.62,6.41-7.78,1.25-2.16,2.16-4.1,2.75-5.83.59-1.73,1.09-3.35,1.52-4.88.18-.76.28-1.54.29-2.33l.02-1.97c.02-2.09-.16-4.19-.53-6.24l-.09-.47c-.43-2.38-1.08-4.64-1.94-6.8-.58-1.46-1.36-2.82-2.34-4.08.84-4.42,1.62-8.24,2.34-11.47.86-3.88,1.3-7.84,1.3-11.81v-.51c0-4.32-.22-8.86-.65-13.61-.43-4.75-1.17-9.46-2.2-14.12l-.12-.56c-.18-.8-.34-1.6-.48-2.41l-.31-1.73c-.05-.28-.29-.48-.57-.48-.28,0-.52.2-.57.48l-.26,1.48c-.55,3.13-.84,7.4-.87,12.8-.03,5.4-.27,10.8-.71,16.17l-.18,2.14c-.31,3.77-.63,6.56-.97,8.4l-.36,2c-.09.49-.3.95-.6,1.34-.31.4-.77.59-1.36.57-.64-.02-1.32-.72-2.03-2.11-.71-1.39-1.38-2.38-2.02-2.99-.62-.6-.93-.25-.93,1.05s1,3.67,2.99,7.13l2.02,3.87c-.06.22-.12.45-.18.67-1.73,6.48-2.83,11.07-3.3,13.75-.48,2.68-1.07,5.35-1.78,7.98l-.82,3.04c-.7,2.59-1.33,5.12-1.91,7.61-1.71,5.64-4.72,10.18-9.04,13.64l.69-3.97c.4-2.29.6-4.61.6-6.93s-.43-4.98-1.3-7.96c-.86-2.98-1.3-5.76-1.3-8.35s.43-5.19,1.3-7.78c.86-2.59,1.51-5.62,1.94-9.07.43-3.46.86-7.13,1.3-11.02.43-3.89.86-7.13,1.3-9.72.43-2.59.43-5.83,0-9.72-.43-3.89-.86-6.91-1.3-9.07-.43-2.16-1.08-4.75-1.94-7.78-.86-3.02-2.04-5.83-3.54-8.43l-2.99-5.18c-.5-.86-1.48-2.03-2.94-3.49-1.46-1.46-3.06-2.69-4.78-3.69l-3.89-2.25c-.87-.5-1.19-.57-.98-.2.21.37,1.08,1.31,2.59,2.82,1.52,1.52,3.36,3.68,5.52,6.48,2.16,2.8,3.67,6.15,4.54,10.04.86,3.89,1.73,7.56,2.59,11.02.87,3.46,1.3,7.34,1.3,11.67s-.43,9.72-1.3,16.2c-.86,6.48-2.16,12.31-3.89,17.5-1.73-2.99-3.24-6.12-4.54-9.37-1.3-3.26-2.38-6.61-3.24-10.07-.86-3.46-1.94-7.13-3.24-11.02-.92-2.76-2.02-5.42-3.29-7.97l-.15-.46c-.18-.31-.35-.57-.49-.77-.32-.61-.66-1.22-1.01-1.82m41.93,62.22l-.08.13c-.78.29-1.41.37-1.91.24,1.71-3.17,2.78-6.1,3.23-8.8.38-2.3.92-5.36,1.62-9.17.65,1.98.98,3.86.98,5.66,0,6.23-1.28,10.21-3.84,11.94"/>
  <path class="cls-2" d="m402.47,35.92c-.21,0-.29.44-.22,1.3.13,1.73.42,3.89.85,6.48.43,2.59.65,5.18.65,7.78s.22,5.19.65,7.78c.43,2.59,1.08,5.4,1.94,8.42.87,3.02,1.95,6.27,3.24,9.72,1.3,3.46,2.81,8.42,4.54,14.91,1.73,6.48,2.27,10.8,1.62,12.96-.34,1.13-.64,2.2-.91,3.22-.6,1.99-1.08,3.57-1.45,4.72-.37,1.15-.7,2.03-.99,2.62-.29.59-.58,1.14-.87,1.65-.86,1.5-2.38,2.87-4.54,4.12-2.16,1.25-7.99,4.23-17.5,8.95l-1.15.23c-1.28.25-2.57-.41-3.11-1.6-.61-1.36-.92-2.63-.92-3.82,0-1.73.43-4.32,1.3-7.78-3.46,5.99-5.83,10.94-7.13,14.86-1.3,3.92-2.38,6.63-3.24,8.12-.86,1.5-2.59,3-5.18,4.49l-5.09,2.94c-.8.46-.8,1.39,0,2.78.8,1.39,1.85,2.73,3.15,4.03,1.3,1.3,4.27.6,8.92-2.08,4.65-2.69,8.97-5.54,12.96-8.57,3.99-3.02,7.86-5.62,11.6-7.78l9.72-5.61c2.74-1.58,5.62-2.66,8.64-3.24,3.03-.58,6.7-2.38,11.02-5.4,4.32-3.02,7.99-6.05,11.02-9.07,3.02-3.02,5.16-5.62,6.41-7.78,1.25-2.16,2.16-4.1,2.75-5.83.59-1.73,1.09-3.35,1.52-4.88.18-.76.28-1.54.29-2.33l.02-1.97c.02-2.09-.16-4.19-.53-6.24l-.09-.47c-.43-2.38-1.08-4.64-1.94-6.8-.58-1.46-1.36-2.82-2.34-4.08.84-4.42,1.62-8.24,2.34-11.47.86-3.88,1.3-7.84,1.3-11.81v-.51c0-4.32-.22-8.86-.65-13.61-.43-4.75-1.17-9.46-2.2-14.12l-.12-.56c-.18-.8-.34-1.6-.48-2.41l-.31-1.73c-.05-.28-.29-.48-.57-.48-.28,0-.52.2-.57.48l-.26,1.48c-.55,3.13-.84,7.4-.87,12.8-.03,5.4-.27,10.8-.71,16.17l-.18,2.14c-.31,3.77-.63,6.56-.97,8.4l-.36,2c-.09.49-.3.95-.6,1.34-.31.4-.77.59-1.36.57-.64-.02-1.32-.72-2.03-2.11-.71-1.39-1.38-2.38-2.02-2.99-.62-.6-.93-.25-.93,1.05s1,3.67,2.99,7.13l2.02,3.87c-.06.22-.12.45-.18.67-1.73,6.48-2.83,11.07-3.3,13.75-.48,2.68-1.07,5.35-1.78,7.98l-.82,3.04c-.7,2.59-1.33,5.12-1.91,7.61-1.71,5.64-4.72,10.18-9.04,13.64l.69-3.97c.4-2.29.6-4.61.6-6.93s-.43-4.98-1.3-7.96c-.86-2.98-1.3-5.76-1.3-8.35s.43-5.19,1.3-7.78c.86-2.59,1.51-5.62,1.94-9.07.43-3.46.86-7.13,1.3-11.02.43-3.89.86-7.13,1.3-9.72.43-2.59.43-5.83,0-9.72-.43-3.89-.86-6.91-1.3-9.07-.43-2.16-1.08-4.75-1.94-7.78-.86-3.02-2.04-5.83-3.54-8.43l-2.99-5.18c-.5-.86-1.48-2.03-2.94-3.49-1.46-1.46-3.06-2.69-4.78-3.69l-3.89-2.25c-.87-.5-1.19-.57-.98-.2.21.37,1.08,1.31,2.59,2.82,1.52,1.52,3.36,3.68,5.52,6.48,2.16,2.8,3.67,6.15,4.54,10.04.86,3.89,1.73,7.56,2.59,11.02.87,3.46,1.3,7.34,1.3,11.67s-.43,9.72-1.3,16.2c-.86,6.48-2.16,12.31-3.89,17.5-1.73-2.99-3.24-6.12-4.54-9.37-1.3-3.26-2.38-6.61-3.24-10.07-.86-3.46-1.94-7.13-3.24-11.02-.92-2.76-2.02-5.42-3.29-7.97l-.15-.46c-.18-.31-.35-.57-.49-.77-.32-.61-.66-1.22-1.01-1.82m41.93,62.22l-.08.13c-.78.29-1.41.37-1.91.24,1.71-3.17,2.78-6.1,3.23-8.8.38-2.3.92-5.36,1.62-9.17.65,1.98.98,3.86.98,5.66,0,6.23-1.28,10.21-3.84,11.94"/>
</svg>