<?xml version="1.0" encoding="utf-8"?>
<!-- Generator: Adobe Illustrator 27.2.0, SVG Export Plug-In . SVG Version: 6.00 Build 0)  -->
<svg version="1.0" id="Laag_1" xmlns="http://www.w3.org/2000/svg" xmlns:xlink="http://www.w3.org/1999/xlink" x="0px" y="0px"
	 viewBox="0 0 709.4 449.9" style="enable-background:new 0 0 709.4 449.9;" xml:space="preserve">
<style type="text/css">
	.st0{fill:none;stroke:#000000;stroke-width:0.72;stroke-linecap:round;stroke-linejoin:round;stroke-miterlimit:10;}
	.st1{fill-rule:evenodd;clip-rule:evenodd;}
</style>
<g>
	<path d="M149.3,275.8c0,2.4,1.3,3.6,3.9,3.6c1.7,0,3.2-0.7,4.3-2.1c1.2-1.4,1.7-3.2,1.7-5.3c0-4.1-1.8-7.6-5.3-10.4
		c-3.5-2.8-7.9-4.2-13.1-4.2c-7.1,0-12.8,2.4-17.2,7.3c-4.4,4.9-6.6,11.2-6.6,19c0,7.5,2.2,13.6,6.5,18.2c4.3,4.6,10,6.9,17.2,6.9
		c6.1,0,10.8-1.7,14.3-5.2c3.5-3.5,5.2-7.2,5.2-11.2c0-1.3-0.5-1.9-1.4-1.9c-0.9,0-1.3,0.8-1.4,2.5c-0.1,2.6-1.3,5.3-3.4,8
		c-3.1,3.9-7.6,5.8-13.6,5.8c-6.3,0-11.3-2.1-15-6.2c-3.7-4.2-5.5-9.8-5.5-16.9c0-7.4,1.9-13.3,5.8-17.7c3.9-4.4,9-6.6,15.5-6.6
		c4.3,0,8,1.2,11,3.5c3,2.4,4.5,5.2,4.5,8.6c0,1.9-0.5,2.8-1.4,2.8c-0.2,0-0.5-0.1-0.8-0.3l-0.6-0.7c-0.3-0.3-0.8-0.5-1.7-0.5
		C150.3,272.8,149.3,273.8,149.3,275.8L149.3,275.8L149.3,275.8z M174.6,264.3c-4.3,4.7-6.5,10.7-6.5,18.1c0,7.7,2.2,14,6.5,19
		c4.3,4.9,9.9,7.4,16.7,7.4c7,0,12.7-2.4,17-7.1c4.4-4.7,6.5-10.8,6.5-18.4c0-7.7-2.2-14-6.5-18.8c-4.4-4.8-10-7.2-17-7.2
		C184.5,257.3,179,259.7,174.6,264.3L174.6,264.3z M176.5,300.1c-3.7-4.4-5.6-10.3-5.6-17.5c0-6.9,1.9-12.5,5.6-16.8
		c3.8-4.3,8.7-6.4,14.8-6.4c6.1,0,11.1,2.2,14.9,6.7c3.8,4.5,5.7,10.3,5.7,17.5c0,6.9-1.9,12.4-5.8,16.7c-3.9,4.3-8.9,6.4-15,6.4
		C185.2,306.8,180.3,304.5,176.5,300.1L176.5,300.1z M236.7,260.6c0-1.5-0.5-2.3-1.6-2.3c-0.4,0-1,0-1.8,0.1
		c-0.8,0.1-1.4,0.1-1.8,0.1h-4.8l-3-0.3h-0.3c-1.1,0-1.7,0.4-1.7,1.3c0,0.9,0.7,1.3,2,1.3c0.1,0,0.2,0,0.3,0l2.7-0.2
		c1.8-0.1,2.9-0.2,3.3-0.2c1.2,0,2.1,0.2,2.6,0.5c0.9,0.5,1.4,2.5,1.5,6c0-0.7,0,1.4,0,6.3V289c0,7.8-0.3,12.5-0.8,14.1
		c-0.5,1.6-2.1,2.4-4.6,2.4c-0.5,0-1.2,0-2.1,0c-1,0-1.7,0-2.1,0H224c-1.5,0-2.2,0.4-2.2,1.2c0,0.7,0.6,1.1,1.9,1.1
		c0.1,0,0.2,0,0.3,0l3.5-0.3l4.2-0.3h2.8h1.9h2.9l4.1,0.3l3.5,0.3c-0.1,0,0.1,0,0.4,0c1.2,0,1.8-0.4,1.8-1.2c0-0.7-0.7-1.1-2.2-1.1
		h-0.5c-0.5,0-1.2,0-2.1,0c-0.9,0-1.6,0-2.1,0c-2.5,0-4.1-0.8-4.6-2.4c-0.5-1.6-0.8-6.3-0.8-14.1V260.6L236.7,260.6z M231.9,244.5
		c-0.7,0.7-1,1.6-1,2.6c0,1,0.3,1.8,1,2.5s1.6,1,2.6,1c0.9,0,1.7-0.3,2.4-1c0.7-0.7,1-1.5,1-2.5c0-1-0.3-1.9-1-2.6
		c-0.7-0.7-1.5-1.1-2.5-1.1C233.4,243.5,232.6,243.8,231.9,244.5L231.9,244.5z M267.3,259c-0.2-0.5-0.8-0.7-1.7-0.7
		c-0.4,0-1,0-1.9,0.1c-0.9,0.1-1.5,0.1-1.9,0.1h-1.9c-0.7,0-1.5,0-2.3-0.1c-1.6-0.1-2.6-0.2-3.1-0.2c-1.2,0-1.8,0.4-1.8,1.3
		c0,0.9,0.7,1.3,2,1.3l3-0.2c1.8-0.1,2.9-0.2,3.3-0.2c1.2,0,2.1,0.2,2.6,0.5c0.9,0.5,1.4,2.5,1.5,6c0-0.6,0,1.5,0,6.3V289
		c0,7.8-0.3,12.5-0.8,14.1c-0.5,1.6-2.1,2.4-4.7,2.4c-0.5,0-1.2,0-2.1,0c-0.9,0-1.6,0-2.1,0h-0.5c-1.5,0-2.2,0.4-2.2,1.2
		c0,0.7,0.6,1.1,1.9,1.1c0.1,0,0.2,0,0.3,0l3.5-0.3l4.2-0.3h2.8h1.8h3l4.1,0.3l3.5,0.3c-0.1,0,0.1,0,0.4,0c1.2,0,1.8-0.4,1.8-1.2
		c0-0.7-0.7-1.1-2.2-1.1h-0.5c-0.5,0-1.2,0-2.1,0c-0.9,0-1.6,0-2.1,0c-2.5,0-4.1-0.8-4.6-2.4c-0.5-1.6-0.8-6.3-0.8-14.1v-8.7
		c0-5.5,0.6-9.4,1.9-11.9c3.1-6.1,8.4-9.1,16.1-9.1c6.3,0,10.7,1.9,13.4,5.6c1.9,2.6,2.8,8.1,2.8,16.6v7.5c0,7.9-0.2,12.6-0.7,14.1
		c-0.5,1.6-2,2.3-4.6,2.3c-0.5,0-1.2,0-2.1,0c-1,0-1.7,0-2.1,0h-0.4c-1.5,0-2.2,0.4-2.2,1.2c0,0.7,0.6,1.1,1.8,1.1h0.4l3.5-0.3
		l4.1-0.3h2.9h1.9h2.8l4.2,0.3l3.5,0.3h0.3c1.3,0,1.9-0.4,1.9-1.2c0-0.7-0.7-1.1-2.2-1.1h-0.5c-0.5,0-1.2,0-2.1,0c-1,0-1.7,0-2.1,0
		c-2.5,0-4.1-0.8-4.6-2.4c-0.5-1.6-0.8-6.3-0.8-14.1v-7.4c0-5.6-0.3-9.7-0.8-12.3c-0.8-3.8-2.7-6.7-5.8-8.8c-3.1-2.1-7-3.1-11.8-3.1
		c-3.3,0-6.4,0.6-9.5,1.9c-3.6,1.5-6.6,4.4-8.9,8.6v-5.4C267.7,260.6,267.6,259.5,267.3,259L267.3,259z"/>
	<path d="M329.4,261.4c0-0.3,0-0.6,0-1c0-1.4-0.7-2.1-2-2.1c-0.5,0-1.3,0-2.3,0.1c-1,0.1-1.8,0.1-2.3,0.1h-1.2h-2.3l-2.9-0.2H316
		c-1.1,0-1.7,0.4-1.7,1.3c0,0.9,0.7,1.3,2,1.3l3-0.2c1.8-0.2,2.9-0.3,3.3-0.3c1.2,0,2.1,0.2,2.6,0.5c0.9,0.5,1.4,2.5,1.5,6
		c0-0.7,0,1.4,0,6.3v34.6c0,7.8-0.3,12.5-0.8,14.1c-0.5,1.6-2.1,2.4-4.6,2.4c-0.5,0-1.2,0-2.2-0.1c-1-0.1-1.7-0.1-2.2-0.1
		c-0.2-0.1-0.4-0.1-0.5-0.1c-1.5,0-2.2,0.4-2.2,1.3c0,0.8,0.6,1.2,1.9,1.2c0.1,0,0.2,0,0.3,0l3.5-0.5h4.2h2.8h2h6.9l3.5,0.5h0.3
		c1.3,0,1.9-0.4,1.9-1.2c0-0.9-0.7-1.3-2.1-1.3c-0.3,0-0.5,0-0.6,0.1c-0.5,0-1.2,0-2.1,0.1c-0.9,0.1-1.6,0.1-2.1,0.1
		c-2.5,0-4.1-0.8-4.6-2.4c-0.5-1.6-0.8-6.4-0.8-14.2v-8.4c3.4,6.3,9,9.5,16.7,9.5c6.7,0,12-2.4,16.1-7.3s6.1-11.3,6.1-19.2
		c0-7.7-1.9-13.7-5.7-18.2c-3.8-4.5-8.9-6.7-15.4-6.7c-8.3,0-14.3,3.8-17.9,11.3V261.4L329.4,261.4z M333.3,300.9
		c-1.9-2.2-3.1-5.1-3.6-8.7c-0.2-1.5-0.3-4.8-0.3-9.7c0-4.6,0.3-8.1,1-10.5c0.7-2.4,2-4.7,3.9-6.9c3.2-3.8,7.6-5.7,13.1-5.7
		c5.8,0,10.3,2,13.5,6.1s4.7,9.9,4.7,17.4c0,7.3-1.7,13-5.2,17.4c-3.4,4.3-8.1,6.5-13.9,6.5C341.1,306.8,336.7,304.8,333.3,300.9
		L333.3,300.9L333.3,300.9z M414.3,263.7c-4.1-4.2-9.1-6.3-15-6.3c-6.8,0-12.3,2.4-16.6,7.3c-4.3,4.9-6.4,11.2-6.4,19
		c0,7.5,2.1,13.6,6.2,18.2c4.1,4.6,9.6,6.9,16.4,6.9c4.7,0,8.7-1.1,12.2-3.3s6-5.3,7.6-9.3c0.7-1.9,1.1-3.4,1.1-4.5
		c0-0.9-0.4-1.4-1.2-1.4c-0.7,0-1.2,0.6-1.5,1.7c-0.3,1.5-0.5,2.3-0.5,2.5c-0.6,2.1-1.6,4-3,5.7c-3.6,4.5-8.6,6.7-14.9,6.7
		c-5.9,0-10.6-2-14.2-6.1c-3.6-4.1-5.4-9.5-5.4-16.1c0-1.1,0.1-1.7,0.3-2c0.2-0.3,0.8-0.4,1.7-0.4h35.3c1.3,0,2.3-0.1,2.9-0.4
		c0.6-0.3,0.9-1.1,0.9-2.5C420.4,273.1,418.3,267.9,414.3,263.7L414.3,263.7z M380.2,274c1.4-4.7,3.7-8.3,7-10.8
		c3.3-2.6,7.2-3.8,11.8-3.8c6.1,0,10.8,2.2,14.2,6.7c2.9,3.9,4.4,7.9,4.4,12.2c0,1.1-0.6,1.6-1.7,1.6h-34.3c-1.5,0-2.2-0.5-2.2-1.5
		C379.4,277.2,379.7,275.7,380.2,274L380.2,274L380.2,274z M442.9,260.5c0-1.4-0.7-2.2-2.1-2.2c-0.1,0-0.2,0-0.5,0
		c-0.2,0-0.4,0.1-0.5,0.1c-1.4,0.1-2.5,0.2-3.2,0.2h-1.5c-0.8,0-1.6,0-2.3-0.1c-1.5-0.1-2.6-0.2-3.2-0.2c-1.1,0-1.7,0.4-1.7,1.3
		c0,0.9,0.7,1.3,2,1.3l3-0.2c1.8-0.1,2.9-0.2,3.3-0.2c1.2,0,2.1,0.2,2.6,0.5c0.9,0.5,1.4,2.5,1.5,6c0-0.6,0,1.5,0,6.3V289
		c0,7.8-0.3,12.5-0.8,14.1c-0.5,1.6-2.1,2.4-4.7,2.4c-0.5,0-1.2,0-2.1,0c-0.9,0-1.6,0-2.1,0h-0.5c-1.5,0-2.2,0.4-2.2,1.2
		c0,0.7,0.6,1.1,1.9,1.1c0.1,0,0.2,0,0.3,0l3.5-0.3l4.1-0.3h2.9h1.8h3l4.1,0.3l3.5,0.3h0.3c1.3,0,1.9-0.4,1.9-1.2
		c0-0.7-0.7-1.1-2.2-1.1h-0.5c-0.5,0-1.2,0-2.1,0c-0.9,0-1.6,0-2.1,0c-2.5,0-4.1-0.8-4.6-2.4c-0.5-1.6-0.8-6.3-0.8-14.1v-8.5
		c0-6.7,1-11.6,2.9-14.8c2.6-4.3,6.8-6.4,12.5-6.4c3.3,0,6,0.9,8.1,2.6c2.1,1.8,3.1,4,3.1,6.8c0,2.4-0.4,3.6-1.3,3.6
		c-0.2,0-0.6-0.2-1.1-0.6c-0.5-0.4-1.1-0.6-1.6-0.6c-2,0-3,1-3,3c0,2.2,1.2,3.3,3.6,3.3c1.8,0,3.3-0.8,4.4-2.3
		c1.2-1.6,1.7-3.5,1.7-5.8c0-3.5-1.3-6.4-3.8-8.6c-2.6-2.2-5.8-3.3-9.8-3.3c-6.8,0-12,3.2-15.7,9.6V260.5L442.9,260.5z M517.5,306.7
		c0.3,0.6,0.8,0.8,1.5,0.8c0.1,0,0.2,0,0.5,0c0.3,0,0.5,0,0.7,0c0.2,0,0.7,0,1.6,0h5.1h2.9h0.3c1.1,0,1.7-0.4,1.7-1.3
		c0-0.9-0.7-1.3-2-1.3c-0.3,0-1.3,0.1-3,0.4c-1.7,0.3-2.8,0.4-3.3,0.4c-1.7,0-2.8-0.5-3.3-1.4c-0.5-0.9-0.7-4.7-0.7-11.5v-44.2v-4.1
		v-2.8c0-1.1-0.2-1.7-0.5-2c-0.3-0.3-0.8-0.4-1.6-0.4h-1.3c-0.5,0-1,0-1.7,0h-4.9h-2.9h-0.3c-1.1,0-1.7,0.4-1.7,1.2s0.6,1.2,1.9,1.2
		c0.5,0,1.5-0.1,3-0.2c1.6-0.1,2.7-0.2,3.4-0.2c1.8,0,2.9,0.5,3.3,1.4c0.5,0.9,0.7,4.7,0.7,11.4v13.1c-3.1-6.6-8.4-9.9-16.1-9.9
		c-6.6,0-12,2.5-16.3,7.5c-4.3,5-6.5,11.3-6.5,18.9c0,7.4,2,13.4,6.1,18.1c4,4.7,9.3,7,15.7,7c7.4,0,13-3.4,17.1-10.1v4
		C517,304.8,517.2,306.1,517.5,306.7L517.5,306.7z M516,294.9c-0.7,2.4-2,4.6-3.8,6.7c-3.2,3.5-7.2,5.2-12,5.2
		c-5.7,0-10.3-2.1-13.8-6.4c-3.6-4.3-5.3-9.8-5.3-16.5c0-7.1,1.9-12.9,5.6-17.5c3.7-4.6,8.4-6.9,14.1-6.9c6.4,0,10.9,2.5,13.7,7.4
		c1.8,3.3,2.7,8.8,2.7,16.5v1.3C517,289,516.7,292.5,516,294.9L516,294.9z"/>
	<path d="M580.6,303.4c0,1.7,0.2,2.8,0.5,3.4c0.3,0.6,1,0.9,2,0.9c0.7,0,1.2,0,1.7,0c0.3,0,0.7,0,1.2,0c0.5-0.2,0.8-0.3,1-0.3h1.2
		l2.3,0.1l2.9,0.2h0.2c1.2,0,1.8-0.4,1.8-1.3c0-0.9-0.6-1.3-1.9-1.3c-0.7,0-1.8,0.1-3.1,0.4c-1.9,0.1-3,0.1-3.2,0.1
		c-1.7,0-2.8-0.4-3.3-1.3c-0.5-0.9-0.7-4.7-0.7-11.4v-20.2c0-1.7,0-3.4,0-5.3c0-1.8,0-2.8,0-3c0-0.4,0-1.1,0-2c0-2.7-0.6-4-1.9-4
		c-0.5,0-0.9,0-1.3,0.1c-0.4,0.1-1.1,0.1-2.1,0.1h-5l-2.7-0.3h-0.3c-1.1,0-1.6,0.4-1.6,1.3c0,0.9,0.6,1.3,1.9,1.3l2.9-0.3
		c1.2-0.1,2.3-0.2,3.3-0.2c1.7,0,2.8,0.4,3.3,1.3c0.5,0.9,0.8,4.7,0.8,11.4v11.3c0,6.7-1,11.8-3.1,15.2c-2.9,4.7-7.7,7.1-14.5,7.1
		c-5.1,0-9.1-1.4-11.8-4.3c-1.7-1.8-2.8-4-3.3-6.7c-0.3-1.6-0.5-4.2-0.5-7.7v-23.2c0-1,0-1.8,0-2.3V262c0-2.5-0.6-3.7-1.8-3.7
		l-1.6,0.2l-1,0.1h-5.8l-2.8-0.3h-0.3c-1,0-1.5,0.4-1.5,1.2c0,0.9,0.6,1.4,1.9,1.4c0.2,0,1.2-0.1,2.9-0.3c1.2-0.1,2.3-0.2,3.2-0.2
		c1.9,0,3.1,0.6,3.5,1.9c0.4,1.3,0.6,4.9,0.6,10.9v14.6c0,3.8,0.1,6.5,0.4,8.2c0.5,2.9,1.6,5.3,3.3,7.3c3.1,3.7,7.9,5.5,14.4,5.5
		c5.5,0,10-1.6,13.6-4.9c1.5-1.4,2.9-3.3,4.1-5.6v3.8V303.4L580.6,303.4z"/>
	<line class="st0" x1="0.4" y1="374.8" x2="709" y2="374.8"/>
	<path d="M274.3,448.2c1.4-1.1,2.1-2.6,2.1-4.4c0-1.9-0.8-3.2-2.5-3.9c-1.1-0.5-2.9-0.9-5.3-1.1c-2.2-0.2-3.8-0.6-4.6-1.2
		c-0.8-0.6-1.3-1.5-1.3-2.8c0-1.4,0.5-2.5,1.6-3.3c1.1-0.9,2.4-1.3,4.1-1.3c1.8,0,3.2,0.5,4.3,1.6c1.1,1,1.7,2.4,1.7,4
		c0-0.1,0,0-0.1,0.3l-0.1,0.9v0.1c0,0.4,0.2,0.6,0.5,0.6c0.3,0,0.5-0.2,0.5-0.7v-0.4c0-0.2-0.1-0.4-0.1-0.7c0-0.2,0-0.9,0-2l0-1.5
		c0-0.2,0-0.5,0-0.8c0-0.3,0-0.5,0-0.5c0.1-0.5,0.1-0.9,0.1-1c0-0.4-0.2-0.6-0.5-0.6s-0.5,0.4-0.5,1.2v1.9c-1.4-2.2-3.4-3.3-6.1-3.3
		c-1.9,0-3.6,0.5-4.8,1.6c-1.3,1.1-1.9,2.4-1.9,4c0,0.9,0.2,1.6,0.7,2.4c0.5,0.7,1,1.3,1.8,1.6c0.9,0.4,2.6,0.7,5.2,1
		c2.2,0.3,3.7,0.7,4.6,1.3c0.9,0.6,1.3,1.6,1.3,2.9c0,1.5-0.6,2.6-1.8,3.5c-1.2,0.9-2.7,1.4-4.6,1.4c-2,0-3.7-0.5-5-1.6
		c-1.3-1.1-1.9-2.4-1.9-4.1c0-0.4,0-0.7,0.1-1.1c0-0.3,0-0.5,0.1-0.7c0-0.2,0.1-0.3,0.1-0.4c0-0.7-0.2-1-0.6-1
		c-0.4,0-0.5,0.2-0.5,0.7c0,0,0,0.4,0.1,1.1c0.1,0.7,0.1,1.7,0.1,2.9c0,1.1,0,2.1-0.1,2.7c-0.1,0.7-0.1,1.2-0.1,1.5
		c0,0.5,0.2,0.8,0.6,0.8c0.3,0,0.5-0.3,0.5-0.9c0,0.1,0-0.3-0.1-1.4c0-0.2-0.1-0.5-0.1-1c1.5,2.2,3.8,3.3,6.9,3.3
		C271.1,449.9,272.9,449.4,274.3,448.2L274.3,448.2z M279.7,422.3h-0.1c-0.5,0-0.7,0.2-0.7,0.5s0.3,0.5,0.8,0.5c0.1,0,0.5,0,1.2-0.1
		c0.5,0,0.9,0,1.3,0c0.8,0,1.2,0.2,1.4,0.7c0.2,0.5,0.2,1.9,0.2,4.3v13.9c0,3.1-0.1,5-0.3,5.6c-0.2,0.6-0.8,1-1.9,1
		c-0.2,0-0.5,0-0.9,0c-0.4,0-0.7,0-0.9,0h-0.2c-0.6,0-0.9,0.2-0.9,0.5c0,0.3,0.2,0.4,0.7,0.4h0.2l1.4-0.1l1.6-0.1h1.2h0.8h1.2
		l1.6,0.1l1.4,0.1h0.1c0.5,0,0.7-0.2,0.7-0.5c0-0.3-0.3-0.4-0.8-0.4h-0.2c-0.2,0-0.5,0-0.8,0c-0.4,0-0.7,0-0.8,0c-1,0-1.7-0.3-1.9-1
		c-0.2-0.6-0.3-2.5-0.3-5.6v-18.5c0-0.5,0-0.7-0.1-0.8c-0.1-0.2-0.3-0.4-0.7-0.4h-0.4c-0.6,0-0.9,0-1,0h-1.8H279.7L279.7,422.3z"/>
	<path d="M294.3,432.2c-1.7,1.9-2.6,4.3-2.6,7.2c0,3.1,0.9,5.6,2.6,7.6c1.7,2,3.9,2.9,6.7,2.9c2.8,0,5.1-0.9,6.8-2.8
		c1.7-1.9,2.6-4.3,2.6-7.3c0-3.1-0.9-5.6-2.6-7.5c-1.7-1.9-4-2.9-6.8-2.9C298.2,429.4,296,430.3,294.3,432.2L294.3,432.2z
		 M295,446.5c-1.5-1.8-2.2-4.1-2.2-7c0-2.8,0.8-5,2.3-6.7c1.5-1.7,3.5-2.6,5.9-2.6c2.4,0,4.4,0.9,6,2.7c1.5,1.8,2.3,4.1,2.3,7
		c0,2.7-0.8,5-2.3,6.7c-1.5,1.7-3.5,2.6-6,2.6C298.5,449.1,296.5,448.2,295,446.5L295,446.5z M332.5,449.8c0.5,0,0.8-0.5,1.1-1.5
		l4.1-14.9c0.3-1.2,0.6-2,0.8-2.2c0.2-0.3,0.5-0.4,1.1-0.4c0.2,0,0.5,0,0.8,0.1c0.3,0,0.6,0.1,0.8,0.1c0.5,0,0.8-0.2,0.8-0.6
		c0-0.3-0.3-0.5-0.8-0.5l-1.1,0l-1.5,0.1c-0.3,0-0.8,0-1.5,0c-1.2,0-2.2,0-3-0.1c-0.6-0.1-1-0.1-1.2-0.1c-0.6,0-0.8,0.2-0.8,0.6
		c0,0.3,0.2,0.5,0.7,0.5c0.2,0,0.6,0,1.1-0.1c0.5,0,0.9-0.1,1.2-0.1c1.3,0,2,0.3,2,1c0,0.4-0.1,1-0.4,1.9l-3.7,14l-0.2,0.5
		c-0.1,0.2-0.1,0.3-0.2,0.3c-0.1,0-0.2-0.2-0.3-0.6l-5.1-16.8c-0.2-0.6-0.5-1-0.9-1c-0.5,0-0.8,0.4-1,1.1l-4.6,16.3l-0.1,0.4
		c-0.1,0.3-0.2,0.4-0.3,0.4c-0.1,0-0.2-0.3-0.4-0.9l-4-14.5c-0.2-0.6-0.2-1-0.2-1.2c0-0.6,0.4-0.8,1.2-0.8c0.1,0,0.4,0,1,0.1
		c0.6,0,1,0.1,1.4,0.1h0.1c0.7,0,1.1-0.2,1.1-0.6c0-0.3-0.3-0.5-0.8-0.5c-0.2,0-0.7,0-1.4,0.1c-1.2,0.1-2.1,0.1-2.7,0.1
		c-0.4,0-0.9,0-1.4-0.1l-1.4-0.1c-0.9,0-1.3,0-1.2,0c-0.6,0-0.9,0.2-0.9,0.5c0,0.4,0.3,0.6,0.9,0.6c0.3,0,0.5,0,0.7-0.1h0.6
		c0.7,0,1.1,0.2,1.4,0.6c0.2,0.2,0.4,0.7,0.6,1.6l4.3,15.5c0.3,1,0.7,1.4,1.2,1.4c0.5,0,0.9-0.5,1.2-1.4l4.5-16l0.1-0.4
		c0.1-0.2,0.2-0.3,0.2-0.3c0.1,0,0.1,0.1,0.2,0.3l4.9,16.5C331.6,449.3,332,449.8,332.5,449.8L332.5,449.8L332.5,449.8z"/>
	<path d="M369.1,449.1c0.1,0.2,0.3,0.3,0.6,0.3c0,0,0.1,0,0.2,0c0.1,0,0.2,0,0.3,0s0.3,0,0.6,0h2h1.1h0.1c0.4,0,0.7-0.2,0.7-0.5
		c0-0.3-0.3-0.5-0.8-0.5c-0.1,0-0.5,0.1-1.2,0.2c-0.7,0.1-1.1,0.2-1.3,0.2c-0.7,0-1.1-0.2-1.3-0.5c-0.2-0.4-0.3-1.9-0.3-4.6V426
		v-1.6v-1.1c0-0.4-0.1-0.7-0.2-0.8c-0.1-0.1-0.3-0.2-0.6-0.2h-0.5c-0.2,0-0.4,0-0.7,0h-2h-1.2h-0.1c-0.5,0-0.7,0.2-0.7,0.5
		s0.3,0.5,0.8,0.5c0.2,0,0.6,0,1.2-0.1c0.6-0.1,1.1-0.1,1.4-0.1c0.7,0,1.1,0.2,1.3,0.6c0.2,0.4,0.3,1.9,0.3,4.5v5.2
		c-1.2-2.6-3.4-3.9-6.4-3.9c-2.6,0-4.8,1-6.5,3c-1.7,2-2.6,4.5-2.6,7.5c0,2.9,0.8,5.4,2.4,7.2c1.6,1.9,3.7,2.8,6.3,2.8
		c2.9,0,5.2-1.3,6.8-4v1.6C369,448.3,369,448.9,369.1,449.1L369.1,449.1z M368.5,444.4c-0.3,1-0.8,1.8-1.5,2.7
		c-1.3,1.4-2.9,2.1-4.8,2.1c-2.3,0-4.1-0.9-5.5-2.6c-1.4-1.7-2.1-3.9-2.1-6.6c0-2.8,0.7-5.1,2.2-7c1.5-1.8,3.4-2.8,5.6-2.8
		c2.5,0,4.4,1,5.5,2.9c0.7,1.3,1.1,3.5,1.1,6.6v0.5C369,442.1,368.8,443.4,368.5,444.4L368.5,444.4z"/>
	<path d="M379.3,432.2c-1.7,1.9-2.6,4.3-2.6,7.2c0,3.1,0.9,5.6,2.6,7.6c1.7,2,3.9,2.9,6.7,2.9c2.8,0,5.1-0.9,6.8-2.8
		c1.7-1.9,2.6-4.3,2.6-7.3c0-3.1-0.9-5.6-2.6-7.5c-1.7-1.9-4-2.9-6.8-2.9C383.3,429.4,381.1,430.3,379.3,432.2L379.3,432.2z
		 M380.1,446.5c-1.5-1.8-2.2-4.1-2.2-7c0-2.8,0.8-5,2.3-6.7c1.5-1.7,3.5-2.6,5.9-2.6c2.4,0,4.4,0.9,6,2.7c1.5,1.8,2.3,4.1,2.3,7
		c0,2.7-0.8,5-2.3,6.7c-1.5,1.7-3.5,2.6-6,2.6C383.5,449.1,381.6,448.2,380.1,446.5L380.1,446.5z M417.6,449.8
		c0.5,0,0.8-0.5,1.1-1.5l4.1-14.9c0.3-1.2,0.6-2,0.8-2.2c0.2-0.3,0.5-0.4,1.1-0.4c0.2,0,0.5,0,0.8,0.1c0.3,0,0.6,0.1,0.8,0.1
		c0.5,0,0.8-0.2,0.8-0.6c0-0.3-0.3-0.5-0.8-0.5l-1.1,0l-1.5,0.1c-0.3,0-0.8,0-1.5,0c-1.2,0-2.2,0-3-0.1c-0.6-0.1-1-0.1-1.2-0.1
		c-0.6,0-0.8,0.2-0.8,0.6c0,0.3,0.2,0.5,0.7,0.5c0.2,0,0.6,0,1.1-0.1c0.5,0,0.9-0.1,1.2-0.1c1.3,0,2,0.3,2,1c0,0.4-0.1,1-0.4,1.9
		l-3.7,14l-0.2,0.5c-0.1,0.2-0.1,0.3-0.2,0.3s-0.2-0.2-0.3-0.6l-5.1-16.8c-0.2-0.6-0.5-1-0.9-1c-0.5,0-0.8,0.4-1,1.1l-4.6,16.3
		l-0.1,0.4c-0.1,0.3-0.2,0.4-0.3,0.4c-0.1,0-0.2-0.3-0.4-0.9l-4-14.5c-0.2-0.6-0.2-1-0.2-1.2c0-0.6,0.4-0.8,1.2-0.8
		c0.1,0,0.4,0,1,0.1c0.6,0,1,0.1,1.4,0.1h0.1c0.7,0,1.1-0.2,1.1-0.6c0-0.3-0.3-0.5-0.8-0.5c-0.2,0-0.7,0-1.4,0.1
		c-1.2,0.1-2.1,0.1-2.7,0.1c-0.4,0-0.9,0-1.4-0.1l-1.4-0.1c-0.9,0-1.3,0-1.2,0c-0.6,0-0.9,0.2-0.9,0.5c0,0.4,0.3,0.6,0.9,0.6
		c0.3,0,0.5,0,0.7-0.1h0.6c0.7,0,1.1,0.2,1.4,0.6c0.2,0.2,0.4,0.7,0.6,1.6l4.3,15.5c0.3,1,0.7,1.4,1.2,1.4c0.5,0,0.9-0.5,1.2-1.4
		l4.5-16l0.1-0.4c0.1-0.2,0.2-0.3,0.2-0.3c0.1,0,0.1,0.1,0.2,0.3l4.9,16.5C416.7,449.3,417.1,449.8,417.6,449.8L417.6,449.8
		L417.6,449.8z"/>
	<path d="M434,430.1c-0.1-0.2-0.3-0.3-0.7-0.3c-0.2,0-0.4,0-0.8,0.1c-0.3,0-0.6,0.1-0.8,0.1H431c-0.3,0-0.6,0-0.9,0
		c-0.6-0.1-1-0.1-1.2-0.1c-0.5,0-0.7,0.2-0.7,0.5c0,0.3,0.3,0.5,0.8,0.5l1.2-0.1c0.7-0.1,1.2-0.1,1.3-0.1c0.5,0,0.8,0.1,1,0.2
		c0.3,0.2,0.5,1,0.6,2.4c0-0.2,0,0.6,0,2.5v6.3c0,3.1-0.1,5-0.3,5.6c-0.2,0.6-0.8,1-1.9,1c-0.2,0-0.5,0-0.8,0c-0.4,0-0.7,0-0.8,0
		H429c-0.6,0-0.9,0.2-0.9,0.5c0,0.3,0.3,0.4,0.8,0.4c0.1,0,0.1,0,0.1,0l1.4-0.1l1.7-0.1h1.1h0.7h1.2l1.6,0.1l1.4,0.1c0,0,0,0,0.2,0
		c0.5,0,0.7-0.2,0.7-0.5c0-0.3-0.3-0.4-0.9-0.4h-0.2c-0.2,0-0.5,0-0.8,0c-0.4,0-0.7,0-0.8,0c-1,0-1.6-0.3-1.8-1
		c-0.2-0.6-0.3-2.5-0.3-5.6v-3.5c0-2.2,0.3-3.8,0.8-4.7c1.2-2.4,3.4-3.6,6.4-3.6c2.5,0,4.3,0.7,5.3,2.2c0.7,1,1.1,3.2,1.1,6.6v3
		c0,3.1-0.1,5-0.3,5.6c-0.2,0.6-0.8,0.9-1.9,0.9c-0.2,0-0.5,0-0.9,0c-0.4,0-0.7,0-0.9,0h-0.2c-0.6,0-0.9,0.2-0.9,0.5
		c0,0.3,0.2,0.4,0.7,0.4h0.2l1.4-0.1l1.6-0.1h1.2h0.8h1.1l1.7,0.1l1.4,0.1h0.1c0.5,0,0.8-0.2,0.8-0.5c0-0.3-0.3-0.4-0.9-0.4h-0.2
		c-0.2,0-0.5,0-0.9,0c-0.4,0-0.7,0-0.9,0c-1,0-1.6-0.3-1.8-1c-0.2-0.6-0.3-2.5-0.3-5.6v-2.9c0-2.2-0.1-3.9-0.3-4.9
		c-0.3-1.5-1.1-2.7-2.3-3.5c-1.2-0.8-2.8-1.3-4.7-1.3c-1.3,0-2.6,0.3-3.8,0.8c-1.4,0.6-2.6,1.8-3.5,3.4v-2.2
		C434.1,430.7,434.1,430.3,434,430.1L434,430.1z"/>
	<path class="st1" d="M306.9,35.8c0.2,0,0.3,0.4,0.2,1.3c-0.1,1.7-0.4,3.9-0.8,6.5c-0.4,2.6-0.6,5.2-0.6,7.8c0,2.6-0.2,5.2-0.6,7.8
		c-0.4,2.6-1.1,5.4-1.9,8.4c-0.9,3-1.9,6.3-3.2,9.7c-1.3,3.5-2.8,8.4-4.5,14.9c-1.7,6.5-2.3,10.8-1.6,13c0.3,1.1,0.6,2.2,0.9,3.2
		c0.6,2,1.1,3.6,1.4,4.7c0.4,1.2,0.7,2,1,2.6c0.3,0.6,0.6,1.1,0.9,1.7c0.9,1.5,2.4,2.9,4.5,4.1c2.2,1.2,8,4.2,17.5,8.9l1.2,0.2
		c1.3,0.3,2.6-0.4,3.1-1.6c0.6-1.4,0.9-2.6,0.9-3.8c0-1.7-0.4-4.3-1.3-7.8c3.5,6,5.8,10.9,7.1,14.9c1.3,3.9,2.4,6.6,3.2,8.1
		c0.9,1.5,2.6,3,5.2,4.5l5.1,2.9c0.8,0.5,0.8,1.4,0,2.8c-0.8,1.4-1.9,2.7-3.1,4c-1.3,1.3-4.3,0.6-8.9-2.1c-4.7-2.7-9-5.5-13-8.6
		c-4-3-7.9-5.6-11.6-7.8l-9.7-5.6c-2.7-1.6-5.6-2.7-8.6-3.2c-3-0.6-6.7-2.4-11-5.4c-4.3-3-8-6.1-11-9.1c-3-3-5.2-5.6-6.4-7.8
		s-2.2-4.1-2.7-5.8c-0.6-1.7-1.1-3.4-1.5-4.9c-0.2-0.8-0.3-1.5-0.3-2.3l0-2c0-2.1,0.2-4.2,0.5-6.2l0.1-0.5c0.4-2.4,1.1-4.6,1.9-6.8
		c0.6-1.5,1.4-2.8,2.3-4.1c-0.8-4.4-1.6-8.2-2.3-11.5c-0.9-3.9-1.3-7.8-1.3-11.8v-0.5c0-4.3,0.2-8.9,0.6-13.6
		c0.4-4.7,1.2-9.5,2.2-14.1l0.1-0.6c0.2-0.8,0.3-1.6,0.5-2.4l0.3-1.7c0.1-0.3,0.3-0.5,0.6-0.5c0.3,0,0.5,0.2,0.6,0.5l0.3,1.5
		c0.6,3.1,0.8,7.4,0.9,12.8c0,5.4,0.3,10.8,0.7,16.2l0.2,2.1c0.3,3.8,0.6,6.6,1,8.4l0.4,2c0.1,0.5,0.3,1,0.6,1.3
		c0.3,0.4,0.8,0.6,1.4,0.6c0.6,0,1.3-0.7,2-2.1c0.7-1.4,1.4-2.4,2-3c0.6-0.6,0.9-0.3,0.9,1c0,1.3-1,3.7-3,7.1l-2,3.9
		c0.1,0.2,0.1,0.4,0.2,0.7c1.7,6.5,2.8,11.1,3.3,13.8c0.5,2.7,1.1,5.3,1.8,8l0.8,3c0.7,2.6,1.3,5.1,1.9,7.6c1.7,5.6,4.7,10.2,9,13.6
		l-0.7-4c-0.4-2.3-0.6-4.6-0.6-6.9c0-2.3,0.4-5,1.3-8c0.9-3,1.3-5.8,1.3-8.4c0-2.6-0.4-5.2-1.3-7.8c-0.9-2.6-1.5-5.6-1.9-9.1
		c-0.4-3.5-0.9-7.1-1.3-11c-0.4-3.9-0.9-7.1-1.3-9.7c-0.4-2.6-0.4-5.8,0-9.7c0.4-3.9,0.9-6.9,1.3-9.1c0.4-2.2,1.1-4.8,1.9-7.8
		c0.9-3,2-5.8,3.5-8.4l3-5.2c0.5-0.9,1.5-2,2.9-3.5c1.5-1.5,3.1-2.7,4.8-3.7l3.9-2.2c0.9-0.5,1.2-0.6,1-0.2
		c-0.2,0.4-1.1,1.3-2.6,2.8c-1.5,1.5-3.4,3.7-5.5,6.5c-2.2,2.8-3.7,6.1-4.5,10c-0.9,3.9-1.7,7.6-2.6,11c-0.9,3.5-1.3,7.3-1.3,11.7
		c0,4.3,0.4,9.7,1.3,16.2c0.9,6.5,2.2,12.3,3.9,17.5c1.7-3,3.2-6.1,4.5-9.4c1.3-3.3,2.4-6.6,3.2-10.1c0.9-3.5,1.9-7.1,3.2-11
		c0.9-2.8,2-5.4,3.3-8l0.1-0.5c0.2-0.3,0.3-0.6,0.5-0.8c0.3-0.6,0.7-1.2,1-1.8 M265.4,96.7l0.1,0.1c0.8,0.3,1.4,0.4,1.9,0.2
		c-1.7-3.2-2.8-6.1-3.2-8.8c-0.4-2.3-0.9-5.4-1.6-9.2c-0.7,2-1,3.9-1,5.7C261.6,91,262.9,95,265.4,96.7"/>
	<path class="st1" d="M402.5,35.8c-0.2,0-0.3,0.4-0.2,1.3c0.1,1.7,0.4,3.9,0.8,6.5c0.4,2.6,0.6,5.2,0.6,7.8c0,2.6,0.2,5.2,0.6,7.8
		c0.4,2.6,1.1,5.4,1.9,8.4c0.9,3,1.9,6.3,3.2,9.7c1.3,3.5,2.8,8.4,4.5,14.9c1.7,6.5,2.3,10.8,1.6,13c-0.3,1.1-0.6,2.2-0.9,3.2
		c-0.6,2-1.1,3.6-1.4,4.7c-0.4,1.2-0.7,2-1,2.6c-0.3,0.6-0.6,1.1-0.9,1.7c-0.9,1.5-2.4,2.9-4.5,4.1c-2.2,1.2-8,4.2-17.5,8.9
		l-1.2,0.2c-1.3,0.3-2.6-0.4-3.1-1.6c-0.6-1.4-0.9-2.6-0.9-3.8c0-1.7,0.4-4.3,1.3-7.8c-3.5,6-5.8,10.9-7.1,14.9
		c-1.3,3.9-2.4,6.6-3.2,8.1c-0.9,1.5-2.6,3-5.2,4.5l-5.1,2.9c-0.8,0.5-0.8,1.4,0,2.8c0.8,1.4,1.9,2.7,3.1,4c1.3,1.3,4.3,0.6,8.9-2.1
		c4.7-2.7,9-5.5,13-8.6c4-3,7.9-5.6,11.6-7.8l9.7-5.6c2.7-1.6,5.6-2.7,8.6-3.2c3-0.6,6.7-2.4,11-5.4c4.3-3,8-6.1,11-9.1
		c3-3,5.2-5.6,6.4-7.8c1.2-2.2,2.2-4.1,2.7-5.8c0.6-1.7,1.1-3.4,1.5-4.9c0.2-0.8,0.3-1.5,0.3-2.3l0-2c0-2.1-0.2-4.2-0.5-6.2
		l-0.1-0.5c-0.4-2.4-1.1-4.6-1.9-6.8c-0.6-1.5-1.4-2.8-2.3-4.1c0.8-4.4,1.6-8.2,2.3-11.5c0.9-3.9,1.3-7.8,1.3-11.8v-0.5
		c0-4.3-0.2-8.9-0.6-13.6c-0.4-4.7-1.2-9.5-2.2-14.1l-0.1-0.6c-0.2-0.8-0.3-1.6-0.5-2.4l-0.3-1.7c-0.1-0.3-0.3-0.5-0.6-0.5
		c-0.3,0-0.5,0.2-0.6,0.5l-0.3,1.5c-0.6,3.1-0.8,7.4-0.9,12.8c0,5.4-0.3,10.8-0.7,16.2l-0.2,2.1c-0.3,3.8-0.6,6.6-1,8.4l-0.4,2
		c-0.1,0.5-0.3,1-0.6,1.3c-0.3,0.4-0.8,0.6-1.4,0.6c-0.6,0-1.3-0.7-2-2.1c-0.7-1.4-1.4-2.4-2-3c-0.6-0.6-0.9-0.3-0.9,1
		c0,1.3,1,3.7,3,7.1l2,3.9c-0.1,0.2-0.1,0.4-0.2,0.7c-1.7,6.5-2.8,11.1-3.3,13.8c-0.5,2.7-1.1,5.3-1.8,8l-0.8,3
		c-0.7,2.6-1.3,5.1-1.9,7.6c-1.7,5.6-4.7,10.2-9,13.6l0.7-4c0.4-2.3,0.6-4.6,0.6-6.9c0-2.3-0.4-5-1.3-8c-0.9-3-1.3-5.8-1.3-8.4
		c0-2.6,0.4-5.2,1.3-7.8c0.9-2.6,1.5-5.6,1.9-9.1c0.4-3.5,0.9-7.1,1.3-11c0.4-3.9,0.9-7.1,1.3-9.7c0.4-2.6,0.4-5.8,0-9.7
		c-0.4-3.9-0.9-6.9-1.3-9.1c-0.4-2.2-1.1-4.8-1.9-7.8c-0.9-3-2-5.8-3.5-8.4l-3-5.2c-0.5-0.9-1.5-2-2.9-3.5c-1.5-1.5-3.1-2.7-4.8-3.7
		l-3.9-2.2c-0.9-0.5-1.2-0.6-1-0.2c0.2,0.4,1.1,1.3,2.6,2.8c1.5,1.5,3.4,3.7,5.5,6.5c2.2,2.8,3.7,6.1,4.5,10c0.9,3.9,1.7,7.6,2.6,11
		c0.9,3.5,1.3,7.3,1.3,11.7c0,4.3-0.4,9.7-1.3,16.2c-0.9,6.5-2.2,12.3-3.9,17.5c-1.7-3-3.2-6.1-4.5-9.4c-1.3-3.3-2.4-6.6-3.2-10.1
		c-0.9-3.5-1.9-7.1-3.2-11c-0.9-2.8-2-5.4-3.3-8l-0.1-0.5c-0.2-0.3-0.3-0.6-0.5-0.8c-0.3-0.6-0.7-1.2-1-1.8 M444,96.7l-0.1,0.1
		c-0.8,0.3-1.4,0.4-1.9,0.2c1.7-3.2,2.8-6.1,3.2-8.8c0.4-2.3,0.9-5.4,1.6-9.2c0.7,2,1,3.9,1,5.7C447.8,91,446.5,95,444,96.7"/>
</g>
</svg>
